<svg id="Capa_1" data-name="Capa 1" xmlns="http://www.w3.org/2000/svg" xmlns:xlink="http://www.w3.org/1999/xlink" viewBox="0 0 848.08 183.47"><defs><style>.cls-1{fill:#008d97;}.cls-2{fill:url(#Degradado_sin_nombre_71);}</style><linearGradient id="Degradado_sin_nombre_71" x1="22.11" y1="92.52" x2="203.5" y2="93.82" gradientUnits="userSpaceOnUse"><stop offset="0" stop-color="#008f5e"/><stop offset="0.12" stop-color="#099371"/><stop offset="0.36" stop-color="#229ca4"/><stop offset="0.6" stop-color="#3da7dc"/><stop offset="1" stop-color="#81bbe4"/></linearGradient></defs><path class="cls-1" d="M256.28,107.71V85.62h9.54v22.09Zm9.54-22.09V78.26h28.6v7.36Zm0,29.46v-7.37h28.6v7.37ZM294.42,93V85.62H304V93Zm0,14.73v-7.36H304v7.36Z"/><path class="cls-1" d="M313.48,107.71V85.62H323V93h28.6V85.62h9.53v14.73H323v7.36ZM323,85.62V78.26h28.6v7.36Zm0,29.46v-7.37h38.13v7.37Z"/><path class="cls-1" d="M370.69,115.08V78.26h9.53v7.36h9.53V93h-9.53v22.1Zm19.06-29.46V78.26h19.07v7.36ZM408.82,93V85.62h9.54V93Z"/><path class="cls-1" d="M427.89,107.71V85.62h9.53V93H466V85.62h9.54v14.73H437.42v7.36Zm9.53-22.09V78.26H466v7.36Zm0,29.46v-7.37h38.14v7.37Z"/><path class="cls-1" d="M485.09,115.08V63.53h9.54V85.62h9.53V93h-9.53v14.73h28.6v7.37Zm19.07-29.46V78.26h19.07v7.36Zm19.07,22.09V85.62h9.53v22.09Z"/><path class="cls-1" d="M542.29,115.08V78.26h9.54v7.36h9.53V93h-9.53v22.1Zm19.07-29.46V78.26h19.07v7.36ZM580.43,93V85.62H590V93Z"/><path class="cls-1" d="M599.5,70.89V63.53H609v7.36Zm0,44.19V78.26H609v36.82Z"/><path class="cls-1" d="M628.1,107.71V78.26h-9.54V70.89h9.54V63.53h9.53v7.36h9.54v7.37h-9.54v29.45Zm9.53,7.37v-7.37h9.54v7.37Z"/><path class="cls-1" d="M656.7,107.71V85.62h9.53v22.09Zm9.53-22.09V78.26h28.6v7.36Zm0,29.46v-7.37h28.6v7.37Zm28.6-7.37V85.62h9.54v22.09Z"/><path class="cls-1" d="M713.9,93V85.62h9.54V93Zm0,22.1v-7.37H752v7.37Zm9.54-29.46V78.26h38.13v7.36Zm0,14.73V93H752v7.37Zm28.6,7.36v-7.36h9.53v7.36Z"/><path class="cls-1" d="M771.1,122.44v-7.36h47.67v7.36Z"/><path class="cls-2" d="M213.23,73.27a3.34,3.34,0,0,0-.95-.89,12.73,12.73,0,0,0-.85-4.21c-12.6-30.21-36-32.53-41-32.67l-.27-.58a3.24,3.24,0,0,0-.52-.85c-8.11-9.58-19.32-9.57-25.52-8.63a2.75,2.75,0,0,0-.5-.2,3.37,3.37,0,0,0-1.36-2.49c-1.16-.84-29-20.31-63.66-.18,0,0-.07.08-.12.11-4.49,0-9.81,1.55-12.67,6.91-2.06-.1-4.69.47-8.11,2.25-10.4,5.39-18.4,13.9-21.93,23.07-9.89,7.86-15.11,16.71-15.46,26.32-.48,13.45,8.74,23.88,11.82,27,0,.59-.14,1.12-.14,1.75-.23,18.12,18.82,25.49,30.55,27.18l1.05,2.54c.43,2-1.59,8.52-6,19.28-.47,1.13-.86,2.09-1.13,2.79s-.71,1.84.7,6.29a3.34,3.34,0,0,0,.49,1,7.92,7.92,0,0,0,6.27,3.47h.31c4.24,0,9.11-3.22,14.5-9.58A88.36,88.36,0,0,1,90.3,151.48c12.49-4.14,21-13.1,24.53-17.36a48.59,48.59,0,0,0,20.94,5.12c17,0,28.43-10.43,32.61-15a39,39,0,0,0,14.51,2.94,32.27,32.27,0,0,0,17.59-5c10.27-5,16.62-11.83,18.85-20.39C223.09,87.46,213.63,73.84,213.23,73.27ZM27.11,81.48c.2-5.58,2.66-10.93,7.25-16,.74,8.92,4.73,18.67,5.32,20.08a3.4,3.4,0,1,0,6.26-2.64C44.05,78.42,39.56,65.38,41.48,59,44,50.9,51.36,42.78,60.84,37.87c4.4-2.29,5.29-1.37,5.76-.87l.25.25c1.23,1.23,5,5,1.67,13.35-.87,2.2-1.77,4.28-2.65,6.28-3.25,7.44-6.33,14.48-5.39,23.38a50.52,50.52,0,0,0,2.12,10C56.89,89.08,49.3,89.19,43.18,92a18.45,18.45,0,0,0-9,8.32C31,96.28,26.83,89.42,27.11,81.48Zm81.19,41a3.4,3.4,0,0,0-3.9,5.57c1.45,1,2.88,1.95,4.29,2.8-3.53,4-10.91,11.18-21,14.38a3.46,3.46,0,0,0-1,.52,90.1,90.1,0,0,0-13.1,12.8c-5.88,6.95-8.87,7.17-9.37,7.17a.93.93,0,0,1-.72-.32c-.19-.65-.35-1.33-.43-1.75.24-.58.53-1.29.85-2.09,4.85-11.81,7.44-19.51,6.25-23.79,4.74,0,11.18-.91,14.43-5.1,1.7-2.2,3.18-6.16.52-12.5a3.21,3.21,0,0,0-.37-.65c-.33-.47-8.32-11.35-26.83-10.33a3.4,3.4,0,1,0,.38,6.79c13.33-.77,19.54,5.82,20.72,7.23.69,1.77,1.21,4,.21,5.29-2,2.59-9.24,2.82-13.75,2.17a.41.41,0,0,1-.11,0l-.06,0c-.27,0-26.7-2.74-26.47-20.59.07-5.81,2.43-9.69,7.21-11.87,7.36-3.36,17.57-1.21,19.3.26a3.33,3.33,0,0,0,1,.55l0,.06a3.68,3.68,0,0,0,.56.69c.63.61,15.46,14.63,30.7,14.63l.92,0c8.27-.31,14.54-1.14,20-2.71,2.81,3.75,10.75,12.86,22,13.23h.11a3.4,3.4,0,0,0,.11-6.8c-7.07-.23-12.7-5.58-15.56-9a47,47,0,0,0,4.48-2.37,3.4,3.4,0,1,0-3.52-5.81c-7.21,4.38-14.51,6.11-27.87,6.61-11.59.43-24.09-10.4-26.32-12.41a43.86,43.86,0,0,1-4.7-15.58C66.49,72.43,69,66.77,72.1,59.6c.9-2.08,1.84-4.22,2.74-6.5,2.21-5.61,3.47-13.63-3-20.41,2.66-4.73,9.67-2.88,9.95-2.8.56.16,13.66,4.1,13.45,16.1-.21,11.13,3.55,18.16,6,21.57C96,69.66,87.84,75.09,85.34,89a3.39,3.39,0,0,0,2.74,4,4,4,0,0,0,.6,0A3.39,3.39,0,0,0,92,90.22c2.77-15.38,14-17.1,14.7-17.19,5.4,3.94,12.14,4.88,17.12,4.88,1.48,0,2.8-.08,3.88-.18a45.52,45.52,0,0,0,25.38,27c-.43,9.33,4.44,14.42,8.7,16.65C154.93,128.29,136.11,142,108.3,122.45Zm104.45-22.28c-1.74,6.59-6.93,12-15.45,16.06a4.8,4.8,0,0,0-.54.32c-.5.36-12.36,8.64-29.53-.27a3.75,3.75,0,0,0-.79-.29c-.3-.07-6.85-1.71-6.56-10.65a26.9,26.9,0,0,1,7.21-.92A53.27,53.27,0,0,1,178,105.54c17.77,3.57,23.16-8.3,23.38-8.81a3.36,3.36,0,0,0-1.71-4.42A3.42,3.42,0,0,0,195.13,94c-.14.31-3.63,7.36-15.85,4.91A62.17,62.17,0,0,0,167,97.62a32.18,32.18,0,0,0-9.88,1.46,3.65,3.65,0,0,0-.34-.18c-1-.29-24.32-7.44-25.51-38.95a3.4,3.4,0,1,0-6.79.26,63.09,63.09,0,0,0,1.34,10.85c-4.72.27-13-.15-17.53-5.72-.1-.11-.22-.24-.33-.34s-6.16-6-5.92-18.89c.2-10.92-7.35-17.63-13.72-20.88,25.41-11.31,45.37.06,49.29,2.59a21.28,21.28,0,0,0-3.74,5.35c-4.42-1.67-15.14-5-23.32-2.15a3.4,3.4,0,0,0,2.26,6.41c5.87-2.08,15,.64,19.21,2.31a20.26,20.26,0,0,0,1.31,9.17,3.39,3.39,0,0,0,3.18,2.2,3.34,3.34,0,0,0,1.19-.22,3.4,3.4,0,0,0,2-4.38,12.54,12.54,0,0,1,2.64-13.8c2.85-.76,14.23-3.13,21.81,5.4,1.41,3.13,9.21,19.62,20.56,27.82a3.38,3.38,0,0,0,4.74-.76,3.39,3.39,0,0,0-.76-4.74C182.61,56,177.51,48.5,174.21,42.77c7.36,1.38,22.09,6.78,30.92,27.94.05.13,1.17,3.17-.79,4.77l-.32.26C200.11,79,192,85.67,177.45,74.52,161.9,62.57,160,52.5,160,52.44a3.4,3.4,0,0,0-6.72,1c.06.43,1.53,9.34,13.07,20.51a7.83,7.83,0,0,1-7.13.5,27.38,27.38,0,0,1-9.82-8.73,3.4,3.4,0,1,0-5.76,3.6,33.83,33.83,0,0,0,12.58,11.23,13.18,13.18,0,0,0,5.86,1.38,17.55,17.55,0,0,0,9.62-3.28c.52.43,1,.85,1.58,1.27,7.48,5.76,13.86,7.68,19.1,7.68,7.92,0,13.26-4.39,15.93-6.59l.31-.25a9.37,9.37,0,0,0,.7-.71C211.53,84.17,214.84,92.22,212.75,100.17Z"/></svg>