<svg id="Capa_1" data-name="Capa 1" xmlns="http://www.w3.org/2000/svg" viewBox="0 0 595.28 498.2"><defs><style>.cls-1{fill:#fff;}</style></defs><path class="cls-1" d="M15.9,421.9V399.81h9.54V421.9Zm9.54-22.09v-7.36H54v7.36Zm0,29.46V421.9H54v7.37ZM54,407.18v-7.37h9.53v7.37Zm0,14.72v-7.36h9.53v7.36Z"/><path class="cls-1" d="M73.1,421.9V399.81h9.54v7.37h28.6v-7.37h9.53v14.73H82.64v7.36Zm9.54-22.09v-7.36h28.6v7.36Zm0,29.46V421.9h38.13v7.37Z"/><path class="cls-1" d="M130.31,429.27V392.45h9.53v7.36h9.53v7.37h-9.53v22.09Zm19.06-29.46v-7.36h19.07v7.36Zm19.07,7.37v-7.37H178v7.37Z"/><path class="cls-1" d="M187.51,421.9V399.81H197v7.37h28.6v-7.37h9.54v14.73H197v7.36ZM197,399.81v-7.36h28.6v7.36Zm0,29.46V421.9h38.14v7.37Z"/><path class="cls-1" d="M244.71,429.27V377.72h9.54v22.09h9.53v7.37h-9.53V421.9h28.6v7.37Zm19.07-29.46v-7.36h19.07v7.36Zm19.07,22.09V399.81h9.53V421.9Z"/><path class="cls-1" d="M301.91,429.27V392.45h9.54v7.36H321v7.37h-9.53v22.09ZM321,399.81v-7.36h19.07v7.36Zm19.07,7.37v-7.37h9.53v7.37Z"/><path class="cls-1" d="M359.12,385.09v-7.37h9.53v7.37Zm0,44.18V392.45h9.53v36.82Z"/><path class="cls-1" d="M387.72,421.9V392.45h-9.54v-7.36h9.54v-7.37h9.53v7.37h9.53v7.36h-9.53V421.9Zm9.53,7.37V421.9h9.53v7.37Z"/><path class="cls-1" d="M416.32,421.9V399.81h9.53V421.9Zm9.53-22.09v-7.36h28.6v7.36Zm0,29.46V421.9h28.6v7.37Zm28.6-7.37V399.81H464V421.9Z"/><path class="cls-1" d="M473.52,407.18v-7.37h9.53v7.37Zm0,22.09V421.9h38.14v7.37Zm9.53-29.46v-7.36h38.14v7.36Zm0,14.73v-7.36h28.61v7.36Zm28.61,7.36v-7.36h9.53v7.36Z"/><path class="cls-1" d="M530.72,436.63v-7.36h47.67v7.36Z"/><path class="cls-1" d="M472.2,166.44a6.41,6.41,0,0,0-1.79-1.7,24.25,24.25,0,0,0-1.62-8c-23.85-57.19-68.07-61.59-77.6-61.85l-.5-1.1a6.64,6.64,0,0,0-1-1.61c-15.35-18.13-36.57-18.11-48.32-16.35a7.69,7.69,0,0,0-.94-.38,6.29,6.29,0,0,0-2.58-4.69c-2.2-1.6-54.84-38.46-120.52-.35-.09.06-.14.15-.22.2-8.5,0-18.58,2.93-24,13.09-3.9-.19-8.89.89-15.37,4.25-19.67,10.21-34.82,26.32-41.5,43.68-18.73,14.89-28.62,31.64-29.27,49.84-.92,25.46,16.55,45.19,22.38,51.05-.09,1.11-.27,2.13-.28,3.31-.44,34.32,35.64,48.26,57.85,51.47l2,4.81c.81,3.86-3,16.13-11.38,36.5-.88,2.14-1.62,4-2.13,5.27s-1.35,3.49,1.31,11.92a6.38,6.38,0,0,0,.93,1.84,15,15,0,0,0,11.88,6.58h.58c8,0,17.26-6.09,27.45-18.13a166.69,166.69,0,0,1,21.91-21.63c23.64-7.85,39.79-24.81,46.44-32.88,14.51,6.92,27.8,9.7,39.65,9.7,32.17,0,53.83-19.76,61.74-28.36a73.59,73.59,0,0,0,27.47,5.56c18.27,0,30.51-7.49,33.29-9.38,19.46-9.4,31.47-22.4,35.7-38.62C490.86,193.29,473,167.52,472.2,166.44ZM119.84,182c.38-10.56,5-20.7,13.72-30.31,1.4,16.89,9,35.34,10.08,38a6.43,6.43,0,1,0,11.85-5c-3.58-8.5-12.09-33.18-8.45-45.19,4.67-15.42,18.71-30.78,36.65-40.08,8.35-4.33,10-2.59,10.92-1.65l.47.49c2.33,2.33,9.42,9.42,3.16,25.27-1.64,4.16-3.36,8.09-5,11.88-6.16,14.1-12,27.41-10.21,44.27a96.18,96.18,0,0,0,4,19c-10.81-2.31-25.17-2.11-36.77,3.17a35,35,0,0,0-17,15.75C127.26,210,119.3,197,119.84,182Zm153.71,77.57a6.43,6.43,0,1,0-7.38,10.53c2.74,1.93,5.45,3.69,8.12,5.32-6.69,7.62-20.65,21.15-39.83,27.21a6.61,6.61,0,0,0-1.92,1,170.62,170.62,0,0,0-24.8,24.23C196.6,341,190.94,341.41,190,341.41a1.84,1.84,0,0,1-1.37-.61c-.35-1.24-.66-2.51-.81-3.32.44-1.1,1-2.43,1.61-4,9.18-22.36,14.07-36.95,11.82-45,9,0,21.17-1.72,27.32-9.65,3.23-4.17,6-11.65,1-23.66a6,6,0,0,0-.69-1.24c-.63-.88-15.76-21.48-50.8-19.54a6.43,6.43,0,0,0,.72,12.84c25.24-1.44,37,11,39.22,13.69,1.32,3.36,2.31,7.57.41,10-3.79,4.89-17.5,5.35-26,4.11h-.21l-.12,0c-.5-.05-50.54-5.19-50.11-39,.14-11,4.61-18.36,13.65-22.48,13.94-6.36,33.27-2.3,36.55.48a6.24,6.24,0,0,0,1.9,1.05l.07.11a6.29,6.29,0,0,0,1,1.31c1.2,1.15,29.27,27.69,58.12,27.69q.87,0,1.74,0c15.66-.59,27.53-2.17,37.78-5.13,5.3,7.1,20.35,24.35,41.71,25h.22a6.43,6.43,0,0,0,.21-12.86c-13.38-.45-24.05-10.58-29.46-17a91.15,91.15,0,0,0,8.49-4.5,6.43,6.43,0,0,0-6.68-11c-13.65,8.3-27.46,11.57-52.75,12.52-21.94.82-45.61-19.68-49.84-23.49a83,83,0,0,1-8.9-29.49c-1.42-13.48,3.26-24.2,9.2-37.78,1.71-3.93,3.49-8,5.2-12.31,4.18-10.61,6.55-25.79-5.63-38.64,5-9,18.3-5.45,18.84-5.3,1.06.31,25.87,7.78,25.45,30.48-.38,21.08,6.73,34.4,11.43,40.85-10,4-25.49,14.26-30.23,40.62a6.43,6.43,0,0,0,12.66,2.28c5.24-29.12,26.52-32.37,27.82-32.54,10.22,7.46,23,9.23,32.41,9.23,2.81,0,5.3-.15,7.35-.34a86.15,86.15,0,0,0,48.06,51.19c-.81,17.66,8.39,27.31,16.47,31.53C361.83,270.6,326.21,296.46,273.55,259.55Zm197.74-42.19C468,229.84,458.17,240.07,442,247.77a7.43,7.43,0,0,0-1,.61c-.94.68-23.4,16.35-55.91-.51a6.14,6.14,0,0,0-1.5-.55c-.56-.14-12.95-3.24-12.41-20.17a51.63,51.63,0,0,1,13.65-1.75,101.88,101.88,0,0,1,20.56,2.13c33.64,6.75,43.85-15.71,44.27-16.67a6.38,6.38,0,0,0-3.25-8.38,6.47,6.47,0,0,0-8.5,3.15c-.27.57-6.87,13.93-30,9.29a116.64,116.64,0,0,0-23.21-2.38A60.7,60.7,0,0,0,366,215.3a5.75,5.75,0,0,0-.65-.34c-1.88-.55-46.05-14.1-48.3-73.75a6.43,6.43,0,0,0-12.86.49,118.46,118.46,0,0,0,2.55,20.55c-8.93.52-24.57-.29-33.2-10.82a7.45,7.45,0,0,0-.61-.65c-.47-.45-11.66-11.3-11.22-35.77.38-20.66-13.92-33.38-26-39.53,48.11-21.41,85.89.13,93.31,4.91A39.8,39.8,0,0,0,322,90.52c-8.37-3.16-28.67-9.55-44.15-4.08a6.43,6.43,0,0,0,4.28,12.13c11.1-3.93,28.38,1.21,36.37,4.38A38.28,38.28,0,0,0,321,120.31a6.43,6.43,0,0,0,12-4.53c-4.87-12.92.82-21.76,5-26.13C343.4,88.2,365,83.71,379.3,99.86c2.67,5.94,17.44,37.15,38.93,52.68a6.32,6.32,0,0,0,3.76,1.22,6.43,6.43,0,0,0,3.77-11.64c-11.53-8.34-21.19-22.58-27.43-33.44,13.94,2.62,41.82,12.85,58.53,52.9.1.25,2.21,6-1.48,9l-.61.5c-7.41,6.1-22.83,18.79-50.31-2.33-29.43-22.61-32.95-41.67-33-41.79a6.43,6.43,0,1,0-12.73,1.85c.12.82,2.89,17.69,24.75,38.83-3.7,1.91-8.69,3.32-13.51.95-11.63-5.7-18.52-16.44-18.58-16.54a6.43,6.43,0,0,0-10.91,6.82c.36.57,8.81,13.9,23.83,21.27a24.91,24.91,0,0,0,11.08,2.61c7.57,0,14.09-3.4,18.21-6.21,1,.81,1.94,1.6,3,2.41,14.17,10.89,26.24,14.53,36.17,14.53,15,0,25.1-8.31,30.15-12.47l.59-.48a18.36,18.36,0,0,0,1.32-1.33C469,187.07,475.25,202.32,471.29,217.36Z"/></svg>